<svg xmlns="http://www.w3.org/2000/svg" viewBox="0 0 32 32">
  <g stroke="#4361ee" stroke-width="2" stroke-linecap="round" stroke-linejoin="round" fill="none" transform="translate(2,4) scale(1.25)">
    <line x1="6" y1="9" x2="10" y2="9"/>
    <line x1="8" y1="7" x2="8" y2="11"/>
    <line x1="15" y1="10" x2="15.01" y2="10" stroke-width="3.2"/>
    <line x1="18" y1="8" x2="18.01" y2="8" stroke-width="3.2"/>
    <path d="M17.32 3H6.68a4 4 0 00-3.978 3.59c-.006.052-.01.101-.017.152C2.604 7.416 2 12.456 2 14a3 3 0 003 3c1 0 1.5-.5 2-1l1.414-1.414A2 2 0 019.828 14h4.344a2 2 0 011.414.586L17 16c.5.5 1 1 2 1a3 3 0 003-3c0-1.545-.604-6.584-.685-7.258-.007-.05-.011-.1-.017-.151A4 4 0 0017.32 3z"/>
  </g>
</svg>
